<svg version="1.1" id="Layer_1" xmlns="http://www.w3.org/2000/svg" xmlns:xlink="http://www.w3.org/1999/xlink" x="0px" y="0px"
	 width="100%" viewBox="0 0 250 125" enable-background="new 0 0 250 125" xml:space="preserve">
<path fill="#FDFDFF" opacity="1.000000" stroke="none" 
	d="
M186.000000,126.000000 
	C124.000000,126.000000 62.500008,126.000000 1.000008,126.000000 
	C1.000005,84.333336 1.000005,42.666679 1.000003,1.000014 
	C84.333321,1.000009 167.666641,1.000009 250.999969,1.000005 
	C250.999985,42.666653 250.999985,84.333305 251.000000,125.999985 
	C229.500000,126.000000 208.000000,126.000000 186.000000,126.000000 
M174.652206,29.623722 
	C174.652206,27.504522 174.652206,25.385323 174.652206,23.128407 
	C161.793777,23.128407 149.560532,23.128407 136.889893,23.128407 
	C136.889893,34.566872 136.888779,45.694893 136.890167,56.822914 
	C136.891983,71.435608 137.034073,71.626686 150.637909,75.341362 
	C150.637909,78.414932 150.637909,81.502388 150.637909,85.150253 
	C145.467484,85.150253 140.565613,85.150253 135.571136,85.150253 
	C135.571136,88.969467 135.571136,92.213104 135.571136,95.593040 
	C149.105774,95.593040 162.321777,95.593040 175.581711,95.593040 
	C175.581711,91.997948 175.581711,88.760353 175.581711,85.036697 
	C170.996887,85.036697 166.740204,85.036697 162.405853,85.036697 
	C162.405853,81.337006 162.405853,78.146751 162.405853,74.719063 
	C164.629166,74.719063 166.484695,74.507484 168.274857,74.759720 
	C173.157623,75.447723 174.974716,73.922218 174.791687,68.583313 
	C174.358032,55.934494 174.651993,43.260735 174.652206,29.623722 
M20.755920,58.499962 
	C20.756056,65.823380 20.753273,73.146805 20.756960,80.470222 
	C20.763769,93.994705 21.932266,95.132187 35.659740,94.997757 
	C44.573040,94.910461 46.973480,92.574776 46.987473,83.755463 
	C47.017845,64.614754 47.001747,45.473969 46.988400,26.333223 
	C46.987503,25.050091 46.850536,23.767052 46.773060,22.417889 
	C43.045815,22.417889 39.667606,22.417889 35.894199,22.417889 
	C35.894199,31.068420 35.933914,39.365189 35.873413,47.661221 
	C35.851189,50.708767 35.743076,50.707977 31.670212,50.335678 
	C31.670212,41.020832 31.670212,31.636780 31.670212,22.366829 
	C27.800606,22.366829 24.535625,22.366829 20.755703,22.366829 
	C20.755703,34.278049 20.755703,45.889004 20.755920,58.499962 
M209.983505,88.196136 
	C210.755447,85.181015 212.142242,82.176422 212.194122,79.148956 
	C212.433426,65.187363 212.498962,51.215656 212.236160,37.254932 
	C212.041641,26.921501 206.290176,21.695095 196.157440,21.852541 
	C186.663864,22.000053 181.063553,27.817019 181.013733,37.793427 
	C180.946457,51.260902 180.970154,64.729034 181.005814,78.196754 
	C181.026764,86.115593 184.283035,91.548508 190.232361,93.820992 
	C197.280548,96.513222 204.145386,94.748459 209.983505,88.196136 
M59.936008,77.505875 
	C59.936058,64.495110 59.936058,64.495110 62.994556,63.114002 
	C62.994556,74.111092 62.994556,84.834000 62.994556,95.586685 
	C66.731712,95.586685 69.793221,95.586685 72.885025,95.586685 
	C72.885025,70.989807 72.885025,46.743576 72.885025,22.391459 
	C69.494980,22.391459 66.436989,22.391459 62.841805,22.391459 
	C62.841805,32.625179 62.841805,42.534039 62.841805,52.442898 
	C62.270405,52.561405 61.699009,52.679913 61.127609,52.798420 
	C60.730560,51.463409 60.005405,50.132259 59.989635,48.792759 
	C59.886356,40.019627 59.936459,31.244682 59.936459,22.468021 
	C56.234604,22.468021 53.191105,22.468021 50.232239,22.468021 
	C50.232239,47.123497 50.232239,71.367180 50.232239,95.642548 
	C53.528465,95.642548 56.450436,95.642548 59.935978,95.642548 
	C59.935978,89.740883 59.935978,84.121971 59.936008,77.505875 
M106.573166,84.174828 
	C113.310440,84.174828 120.047722,84.174828 126.672966,84.174828 
	C126.672966,76.767097 126.672966,70.200478 126.672966,63.592216 
	C112.628670,63.592216 98.926117,63.592216 85.248734,63.592216 
	C85.248734,66.879990 85.248734,69.784004 85.248734,73.542068 
	C95.575836,73.542068 105.572800,73.542068 115.569771,73.542068 
	C115.568085,74.132973 115.566406,74.723869 115.564720,75.314774 
	C105.436401,75.314774 95.308075,75.314774 85.001839,75.314774 
	C85.001839,80.693214 84.876846,85.175491 85.043144,89.646942 
	C85.166344,92.959686 86.807678,95.803596 90.298035,95.869621 
	C102.709930,96.104431 115.128983,95.961311 127.672241,95.961311 
	C127.672241,92.581726 127.672241,89.697548 127.672241,85.995422 
	C117.110550,85.995422 106.856705,85.995422 96.602859,85.995422 
	C96.594231,85.388527 96.585602,84.781631 96.576973,84.174736 
	C99.585396,84.174736 102.593811,84.174736 106.573166,84.174828 
M227.995926,75.514229 
	C227.995926,71.568214 227.995926,67.622208 227.995926,63.666252 
	C230.034348,63.250862 231.576523,62.936596 232.982117,62.650162 
	C232.982117,59.232346 232.982117,56.147522 232.982117,53.074593 
	C231.212280,52.777958 229.781921,52.538219 227.872513,52.218193 
	C227.872513,42.178391 227.872513,32.293610 227.872513,22.406160 
	C223.951492,22.406160 220.562485,22.406160 217.265472,22.406160 
	C217.265472,47.069153 217.265472,71.384903 217.265472,95.623764 
	C220.956696,95.623764 224.213608,95.623764 227.995911,95.623764 
	C227.995911,89.052002 227.995911,82.781021 227.995926,75.514229 
M87.004425,59.912838 
	C95.213890,60.337242 103.423363,60.761646 111.645988,61.186733 
	C111.645988,56.875393 111.645988,53.637024 111.645988,49.995487 
	C106.347107,49.995487 101.362427,50.263191 96.437103,49.839996 
	C94.863731,49.704811 92.335358,47.883938 92.164688,46.582485 
	C91.614616,42.387615 91.959724,38.075359 91.959724,33.117989 
	C98.710709,33.117989 104.924072,33.117989 110.987320,33.117989 
	C110.987320,29.331411 110.987320,26.250868 110.987320,23.151215 
	C100.740524,23.151215 90.876434,23.151215 80.888794,23.151215 
	C80.888794,33.024406 80.851234,42.488220 80.907547,51.951477 
	C80.929619,55.661232 82.879768,58.176632 87.004425,59.912838 
M126.996529,25.705103 
	C126.417778,21.647339 123.838966,20.946856 116.112480,22.776165 
	C116.112480,35.334621 116.112480,47.904049 116.112480,60.630920 
	C119.777534,60.630920 123.159500,60.630920 126.968704,60.630920 
	C126.968704,56.720238 126.968704,53.124714 126.968704,49.406906 
	C128.899643,49.074081 130.452545,48.806419 131.920181,48.553452 
	C131.920181,44.994411 131.920181,41.739635 131.920181,38.520020 
	C130.094711,38.133327 128.570740,37.810501 126.996956,37.477127 
	C126.996956,33.635330 126.996956,30.144648 126.996529,25.705103 
z"/>
<path fill="#3C75FE" opacity="1.000000" stroke="none" 
	d="
M174.652008,30.110390 
	C174.651993,43.260735 174.358032,55.934494 174.791687,68.583313 
	C174.974716,73.922218 173.157623,75.447723 168.274857,74.759720 
	C166.484695,74.507484 164.629166,74.719063 162.405853,74.719063 
	C162.405853,78.146751 162.405853,81.337006 162.405853,85.036697 
	C166.740204,85.036697 170.996887,85.036697 175.581711,85.036697 
	C175.581711,88.760353 175.581711,91.997948 175.581711,95.593040 
	C162.321777,95.593040 149.105774,95.593040 135.571136,95.593040 
	C135.571136,92.213104 135.571136,88.969467 135.571136,85.150253 
	C140.565613,85.150253 145.467484,85.150253 150.637909,85.150253 
	C150.637909,81.502388 150.637909,78.414932 150.637909,75.341362 
	C137.034073,71.626686 136.891983,71.435608 136.890167,56.822914 
	C136.888779,45.694893 136.889893,34.566872 136.889893,23.128407 
	C149.560532,23.128407 161.793777,23.128407 174.652206,23.128407 
	C174.652206,25.385323 174.652206,27.504522 174.652008,30.110390 
M148.002426,46.505310 
	C148.002426,48.002613 147.990051,49.500034 148.004349,50.997200 
	C148.136002,64.781372 145.923523,64.031723 161.266907,63.873375 
	C161.724823,63.868652 162.180145,63.612560 162.769455,63.433270 
	C162.769455,53.503384 162.769455,43.638180 162.769455,33.692196 
	C157.704849,33.692196 152.987335,33.692196 148.002426,33.692196 
	C148.002426,37.880371 148.002426,41.696518 148.002426,46.505310 
z"/>
<path fill="#3973FE" opacity="1.000000" stroke="none" 
	d="
M20.755812,57.999962 
	C20.755703,45.889004 20.755703,34.278049 20.755703,22.366829 
	C24.535625,22.366829 27.800606,22.366829 31.670212,22.366829 
	C31.670212,31.636780 31.670212,41.020832 31.670212,50.335678 
	C35.743076,50.707977 35.851189,50.708767 35.873413,47.661221 
	C35.933914,39.365189 35.894199,31.068420 35.894199,22.417889 
	C39.667606,22.417889 43.045815,22.417889 46.773060,22.417889 
	C46.850536,23.767052 46.987503,25.050091 46.988400,26.333223 
	C47.001747,45.473969 47.017845,64.614754 46.987473,83.755463 
	C46.973480,92.574776 44.573040,94.910461 35.659740,94.997757 
	C21.932266,95.132187 20.763769,93.994705 20.756960,80.470222 
	C20.753273,73.146805 20.756056,65.823380 20.755812,57.999962 
M31.903564,71.528244 
	C31.907351,74.692825 31.767046,77.867981 31.997911,81.015907 
	C32.072483,82.032738 33.122196,82.978058 33.725838,83.956085 
	C34.449715,83.057373 35.768200,82.179291 35.800209,81.256577 
	C35.996437,75.600479 36.032463,69.928299 35.774075,64.277367 
	C35.731125,63.338051 33.982006,62.476753 33.021320,61.579407 
	C32.648716,61.925808 32.276112,62.272209 31.903509,62.618614 
	C31.903509,65.261147 31.903509,67.903671 31.903564,71.528244 
z"/>
<path fill="#3873FE" opacity="1.000000" stroke="none" 
	d="
M209.782410,88.521530 
	C204.145386,94.748459 197.280548,96.513222 190.232361,93.820992 
	C184.283035,91.548508 181.026764,86.115593 181.005814,78.196754 
	C180.970154,64.729034 180.946457,51.260902 181.013733,37.793427 
	C181.063553,27.817019 186.663864,22.000053 196.157440,21.852541 
	C206.290176,21.695095 212.041641,26.921501 212.236160,37.254932 
	C212.498962,51.215656 212.433426,65.187363 212.194122,79.148956 
	C212.142242,82.176422 210.755447,85.181015 209.782410,88.521530 
M192.103317,76.179626 
	C192.109360,76.677536 192.074005,77.180000 192.128174,77.672623 
	C192.461594,80.704872 192.702408,84.139389 196.822098,83.984985 
	C200.930588,83.831001 201.013763,80.433372 201.018066,77.354179 
	C201.036148,64.406807 201.018951,51.459396 201.028595,38.512012 
	C201.030914,35.416805 200.221619,32.437195 196.722366,32.370998 
	C193.175613,32.303898 192.421021,35.438744 192.152512,38.402023 
	C192.048004,39.555332 192.105194,40.724152 192.104904,41.885914 
	C192.102219,53.007412 192.103027,64.128906 192.103317,76.179626 
z"/>
<path fill="#3973FE" opacity="1.000000" stroke="none" 
	d="
M59.935993,78.004471 
	C59.935978,84.121971 59.935978,89.740883 59.935978,95.642548 
	C56.450436,95.642548 53.528465,95.642548 50.232239,95.642548 
	C50.232239,71.367180 50.232239,47.123497 50.232239,22.468021 
	C53.191105,22.468021 56.234604,22.468021 59.936459,22.468021 
	C59.936459,31.244682 59.886356,40.019627 59.989635,48.792759 
	C60.005405,50.132259 60.730560,51.463409 61.127609,52.798420 
	C61.699009,52.679913 62.270405,52.561405 62.841805,52.442898 
	C62.841805,42.534039 62.841805,32.625179 62.841805,22.391459 
	C66.436989,22.391459 69.494980,22.391459 72.885025,22.391459 
	C72.885025,46.743576 72.885025,70.989807 72.885025,95.586685 
	C69.793221,95.586685 66.731712,95.586685 62.994556,95.586685 
	C62.994556,84.834000 62.994556,74.111092 62.994556,63.114002 
	C59.936058,64.495110 59.936058,64.495110 59.935993,78.004471 
z"/>
<path fill="#3E77FE" opacity="1.000000" stroke="none" 
	d="
M106.087700,84.174782 
	C102.593811,84.174736 99.585396,84.174736 96.576973,84.174736 
	C96.585602,84.781631 96.594231,85.388527 96.602859,85.995422 
	C106.856705,85.995422 117.110550,85.995422 127.672241,85.995422 
	C127.672241,89.697548 127.672241,92.581726 127.672241,95.961311 
	C115.128983,95.961311 102.709930,96.104431 90.298035,95.869621 
	C86.807678,95.803596 85.166344,92.959686 85.043144,89.646942 
	C84.876846,85.175491 85.001839,80.693214 85.001839,75.314774 
	C95.308075,75.314774 105.436401,75.314774 115.564720,75.314774 
	C115.566406,74.723869 115.568085,74.132973 115.569771,73.542068 
	C105.572800,73.542068 95.575836,73.542068 85.248734,73.542068 
	C85.248734,69.784004 85.248734,66.879990 85.248734,63.592216 
	C98.926117,63.592216 112.628670,63.592216 126.672966,63.592216 
	C126.672966,70.200478 126.672966,76.767097 126.672966,84.174828 
	C120.047722,84.174828 113.310440,84.174828 106.087700,84.174782 
z"/>
<path fill="#3872FE" opacity="1.000000" stroke="none" 
	d="
M227.995911,76.012131 
	C227.995911,82.781021 227.995911,89.052002 227.995911,95.623764 
	C224.213608,95.623764 220.956696,95.623764 217.265472,95.623764 
	C217.265472,71.384903 217.265472,47.069153 217.265472,22.406160 
	C220.562485,22.406160 223.951492,22.406160 227.872513,22.406160 
	C227.872513,32.293610 227.872513,42.178391 227.872513,52.218193 
	C229.781921,52.538219 231.212280,52.777958 232.982117,53.074593 
	C232.982117,56.147522 232.982117,59.232346 232.982117,62.650162 
	C231.576523,62.936596 230.034348,63.250862 227.995926,63.666252 
	C227.995926,67.622208 227.995926,71.568214 227.995911,76.012131 
z"/>
<path fill="#3974FE" opacity="1.000000" stroke="none" 
	d="
M86.620087,59.781212 
	C82.879768,58.176632 80.929619,55.661232 80.907547,51.951477 
	C80.851234,42.488220 80.888794,33.024406 80.888794,23.151215 
	C90.876434,23.151215 100.740524,23.151215 110.987320,23.151215 
	C110.987320,26.250868 110.987320,29.331411 110.987320,33.117989 
	C104.924072,33.117989 98.710709,33.117989 91.959724,33.117989 
	C91.959724,38.075359 91.614616,42.387615 92.164688,46.582485 
	C92.335358,47.883938 94.863731,49.704811 96.437103,49.839996 
	C101.362427,50.263191 106.347107,49.995487 111.645988,49.995487 
	C111.645988,53.637024 111.645988,56.875393 111.645988,61.186733 
	C103.423363,60.761646 95.213890,60.337242 86.620087,59.781212 
z"/>
<path fill="#3873FE" opacity="1.000000" stroke="none" 
	d="
M126.996742,26.179535 
	C126.996956,30.144648 126.996956,33.635330 126.996956,37.477127 
	C128.570740,37.810501 130.094711,38.133327 131.920181,38.520020 
	C131.920181,41.739635 131.920181,44.994411 131.920181,48.553452 
	C130.452545,48.806419 128.899643,49.074081 126.968704,49.406906 
	C126.968704,53.124714 126.968704,56.720238 126.968704,60.630920 
	C123.159500,60.630920 119.777534,60.630920 116.112480,60.630920 
	C116.112480,47.904049 116.112480,35.334621 116.112480,22.776165 
	C123.838966,20.946856 126.417778,21.647339 126.996742,26.179535 
z"/>
<path fill="#FBFCFF" opacity="1.000000" stroke="none" 
	d="
M148.002426,46.008987 
	C148.002426,41.696518 148.002426,37.880371 148.002426,33.692196 
	C152.987335,33.692196 157.704849,33.692196 162.769455,33.692196 
	C162.769455,43.638180 162.769455,53.503384 162.769455,63.433270 
	C162.180145,63.612560 161.724823,63.868652 161.266907,63.873375 
	C145.923523,64.031723 148.136002,64.781372 148.004349,50.997200 
	C147.990051,49.500034 148.002426,48.002613 148.002426,46.008987 
z"/>
<path fill="#F5F8FF" opacity="1.000000" stroke="none" 
	d="
M31.903538,71.037224 
	C31.903509,67.903671 31.903509,65.261147 31.903509,62.618614 
	C32.276112,62.272209 32.648716,61.925808 33.021320,61.579407 
	C33.982006,62.476753 35.731125,63.338051 35.774075,64.277367 
	C36.032463,69.928299 35.996437,75.600479 35.800209,81.256577 
	C35.768200,82.179291 34.449715,83.057373 33.725838,83.956085 
	C33.122196,82.978058 32.072483,82.032738 31.997911,81.015907 
	C31.767046,77.867981 31.907351,74.692825 31.903538,71.037224 
z"/>
<path fill="#F9FBFF" opacity="1.000000" stroke="none" 
	d="
M192.103073,75.715012 
	C192.103027,64.128906 192.102219,53.007412 192.104904,41.885914 
	C192.105194,40.724152 192.048004,39.555332 192.152512,38.402023 
	C192.421021,35.438744 193.175613,32.303898 196.722366,32.370998 
	C200.221619,32.437195 201.030914,35.416805 201.028595,38.512012 
	C201.018951,51.459396 201.036148,64.406807 201.018066,77.354179 
	C201.013763,80.433372 200.930588,83.831001 196.822098,83.984985 
	C192.702408,84.139389 192.461594,80.704872 192.128174,77.672623 
	C192.074005,77.180000 192.109360,76.677536 192.103073,75.715012 
z"/>
</svg>